<svg width="347" height="542" viewBox="0 0 347 542" fill="none" xmlns="http://www.w3.org/2000/svg">
<path d="M345.255 217.238C345.255 217.238 277.241 151.995 173.914 123.885C70.5883 151.998 2.57425 217.238 2.57425 217.238C-13.7023 452.551 173.914 541.838 173.914 541.838C173.914 541.838 361.531 452.551 345.255 217.238ZM325.745 296.339C322.528 318.816 317.032 340.689 309.406 361.347C296.582 396.101 277.552 428.163 252.85 456.646C220.99 493.381 188.159 514.424 173.923 522.558C169.017 519.751 161.913 515.423 153.461 509.495C138.448 498.964 115.954 481.057 94.0418 455.563C69.5891 427.113 50.7696 395.121 38.1026 360.483C30.586 339.926 25.1717 318.17 22.0084 295.817C18.8115 273.234 17.8404 249.519 19.1118 225.218C25.966 219.262 39.9522 207.76 59.5997 194.795C76.2692 183.796 93.7078 173.907 111.424 165.4C131.99 155.528 152.987 147.507 173.914 141.525C194.839 147.507 215.839 155.528 236.405 165.4C254.124 173.904 271.56 183.796 288.229 194.795C307.877 207.76 321.86 219.262 328.717 225.218C329.994 249.702 328.998 273.596 325.745 296.339Z" fill="#343744"/>
<path d="M322.741 230.575C322.741 230.575 263.664 171.888 173.914 146.602C84.1641 171.888 25.0869 230.575 25.0869 230.575C10.9492 442.24 173.914 522.556 173.914 522.556C173.914 522.556 336.878 442.243 322.741 230.575ZM305.793 301.727C302.998 321.947 298.223 341.62 291.602 360.201C280.462 391.46 263.936 420.302 242.478 445.925C214.803 478.97 186.289 497.899 173.922 505.216C169.659 502.693 163.489 498.8 156.15 493.464C143.109 483.991 123.571 467.883 104.539 444.951C83.2996 419.359 66.9501 390.584 55.9503 359.426C49.4217 340.935 44.7176 321.366 41.9725 301.258C39.1966 280.945 38.3518 259.611 39.4549 237.755C45.408 232.397 57.5558 222.051 74.6211 210.389C89.1012 200.495 104.247 191.6 119.636 183.949C137.499 175.068 155.74 167.852 173.914 162.474C192.091 167.855 210.329 175.068 228.191 183.949C243.581 191.6 258.726 200.495 273.207 210.389C290.272 222.051 302.42 232.397 308.373 237.755C309.484 259.777 308.62 281.271 305.793 301.727Z" fill="#343744"/>
<path d="M344.516 59.7859L288.481 92.0583L319.37 110.274L302.936 107.701L276.404 131.064L222.746 106.118L193.64 61.1725L185.127 61.3718L201.957 45.7295L172.258 0.189453L142.559 45.7295L159.389 61.3718L150.876 61.1725L121.77 106.118L68.1122 131.064L41.5797 107.701L25.146 110.274L56.0346 92.0583L0 59.7859L14.8507 160.171L38.9862 150.866L16.8323 165.122L18.5753 187.495C18.5753 187.495 92.666 131.264 168.696 112.452L172.261 85.7234L175.825 112.452C251.856 131.264 325.946 187.495 325.946 187.495L327.689 165.122L305.535 150.866L329.671 160.171L344.516 59.7859Z" fill="#343744"/>
<path d="M163.647 224.713C163.647 224.713 169.274 231.295 173.178 235.202C177.083 239.109 181.815 243.328 184.866 247.99C187.917 252.652 191.448 257.794 193.093 267.531C194.737 277.267 195.582 289.508 189.048 299.121L186.76 301.549C186.76 301.549 183.959 296.789 182.514 294.689C181.068 292.59 177.846 287.874 177.846 287.874C177.846 287.874 177.285 287.361 177.099 288.155C176.911 288.949 175.53 292.915 178.952 297.723C182.373 302.531 192.175 316.111 193.295 317.418C194.415 318.726 199.035 323.765 204.12 322.226C209.206 320.686 211.586 316.206 212.333 313.918C213.08 311.631 219.145 305.737 228.093 308.035C228.093 308.035 240.176 310.402 239.868 321.23C239.556 332.056 237.193 339.463 236.384 340.395C235.576 341.329 233.025 344.439 233.025 350.539C233.025 356.638 233.196 357.648 230.069 355.689C226.942 353.73 225.076 350.275 225.542 343.415C226.008 336.555 229.182 336.367 227.316 331.141C225.449 325.915 220.874 323.72 217.935 324.233C217.935 324.233 214.357 324.343 213.425 328.573C213.425 328.573 217.346 332.805 214.233 342.761C211.123 352.717 208.134 352.158 207.825 357.819C207.514 363.481 209.815 368.833 213.425 372.566C217.034 376.299 217.904 376.861 217.781 378.601C217.657 380.344 215.976 382.396 212.181 386.505C208.387 390.614 207.329 391.857 206.893 394.344C206.458 396.834 203.41 406.228 200.671 408.033C197.934 409.837 197.996 409.464 197.996 409.464C197.996 409.464 199.116 418.55 194.386 421.039H186.109C186.109 421.039 183.931 417.741 185.859 413.885C187.788 410.026 190.774 407.912 192.579 406.292C194.384 404.676 196.812 400.567 198.117 394.409C199.425 388.248 199.175 382.525 199.175 382.525C199.175 382.525 191.24 379.21 185.596 371.744C179.948 364.278 178.828 360.637 178.27 357.977C177.711 355.316 177.616 354.942 177.616 354.942C177.616 354.942 177.29 356.716 177.383 359.096C177.476 361.477 177.989 363.203 176.917 363.158C175.845 363.113 171.831 363.531 170.849 363.531C169.866 363.531 169.215 363.624 169.589 364.466C169.962 365.305 173.322 370.394 171.736 373.007C170.15 375.62 164.643 378.188 160.256 379.914C155.869 381.641 150.362 383.462 147.095 384.394C143.828 385.326 144.016 386.028 144.109 388.966C144.201 391.905 144.903 394.473 143.502 395.686C142.102 396.898 139.396 398.953 136.595 397.878C133.794 396.803 133.002 394.425 132.488 392.278C131.975 390.131 132.396 383.97 133.423 383.038C134.45 382.104 146.351 375.946 148.31 375.151C150.269 374.357 151.763 373.939 152.509 373.144C153.256 372.35 156.475 369.411 155.962 368.477C155.448 367.542 152.742 363.576 151.109 360.309C149.475 357.042 149.708 356.203 149.801 353.867C149.893 351.535 149.239 349.295 150.407 348.175C151.575 347.055 154.28 344.442 157.78 341.969C161.28 339.497 162.26 339.356 162.167 338.702C162.075 338.048 160.208 338.514 156.52 335.295C152.832 332.076 149.705 327.921 147.561 324.233C145.417 320.545 143.595 317.418 144.855 316.86C146.115 316.299 147.002 316.534 146.862 315.925C146.722 315.319 144.948 315.692 140.608 315.552C136.269 315.412 124.368 315.459 124.368 315.459L118.163 318.867C118.163 318.867 117.276 319.007 117.368 320.966C117.461 322.925 118.067 334.063 119.608 334.585C121.149 335.107 121.522 334.408 123.481 335.435C125.441 336.463 130.296 339.123 129.875 342.202C129.454 345.281 128.194 349.856 127.588 350.089C126.982 350.322 126.889 350.137 126.328 350.415C125.766 350.696 125.581 351.395 124.368 350.042C123.156 348.689 117.043 343.508 113.447 341.922C109.855 340.336 108.968 339.076 108.687 336.367C108.406 333.661 107.752 315.367 107.752 315.367C107.752 315.367 107.427 313.781 108.406 313.312C109.386 312.843 111.954 311.679 116.293 308.367C120.633 305.052 124.646 302.253 124.646 302.253C124.646 302.253 125.814 301.973 124.787 300.48C123.759 298.986 119.605 294.366 119.187 293.9C118.769 293.435 118.441 293.435 117.368 293.527C116.296 293.62 109.06 294.133 106.214 295.582C103.368 297.027 102.2 297.215 102.2 299.082C102.2 300.948 102.666 303.702 102.854 304.681C103.042 305.661 103.461 306.363 102.902 306.828C102.341 307.294 97.5356 310.562 95.0628 311.263C92.59 311.962 93.1963 310.003 93.1037 308.743C93.0111 307.482 92.9156 306.363 91.9838 305.102C91.0491 303.842 90.2099 302.722 90.6309 301.51C91.0519 300.297 96.0452 290.311 101.692 287.462C107.34 284.616 119.426 281.581 121.573 282.516C123.72 283.451 128.059 286.951 130.207 289.236C132.354 291.523 133.659 293.53 133.987 293.202C134.313 292.876 134.035 289.887 135.573 286.575C137.111 283.263 139.494 278.362 146.587 270.475C153.68 262.588 155.967 261.28 155.594 260.488C155.221 259.697 155.454 260.581 153.539 260.163C151.625 259.742 149.012 258.437 147.94 257.597C146.868 256.758 145.652 256.104 143.32 257.132C140.987 258.159 136.412 260.584 135.621 261.005C134.827 261.426 134.268 261.799 132.867 261.005C131.467 260.211 128.2 258.392 127.453 256.059C126.706 253.727 126.659 252.84 126.381 252.138C126.1 251.439 126.895 250.785 128.107 250.272C129.32 249.758 135.806 245.7 137.908 244.066C140.011 242.432 141.97 240.751 142.669 239.867C143.368 238.98 147.943 234.5 151.49 233.1C155.038 231.699 153.871 231.419 153.357 230.487C152.843 229.552 152.47 226.521 152.47 225.028C152.47 223.534 153.682 222.086 154.244 221.435C154.805 220.781 155.504 220.315 155.785 221.435C156.065 222.555 156.346 223.534 157.511 223.534C158.679 223.534 159.518 223.955 159.518 222.6C159.518 221.244 159.61 220.5 160.312 220.453C161.014 220.405 161.199 220.641 161.665 221.713C162.122 222.774 163.647 224.713 163.647 224.713Z" fill="#343744"/>
</svg>
